<mxfile host="Electron" agent="Mozilla/5.0 (Macintosh; Intel Mac OS X 10_15_7) AppleWebKit/537.36 (KHTML, like Gecko) draw.io/26.0.9 Chrome/128.0.6613.186 Electron/32.2.5 Safari/537.36" version="26.0.9">
  <diagram name="Page-1" id="03018318-947c-dd8e-b7a3-06fadd420f32">
    <mxGraphModel dx="1306" dy="812" grid="1" gridSize="10" guides="1" tooltips="1" connect="1" arrows="1" fold="1" page="1" pageScale="1" pageWidth="1100" pageHeight="850" background="none" math="0" shadow="0">
      <root>
        <mxCell id="0" />
        <mxCell id="1" parent="0" />
        <mxCell id="677b7b8949515195-1" value="" style="whiteSpace=wrap;html=1;rounded=0;shadow=0;labelBackgroundColor=none;strokeColor=#000000;strokeWidth=1;fillColor=none;fontFamily=Verdana;fontSize=12;fontColor=#000000;align=center;comic=1;" parent="1" vertex="1">
          <mxGeometry x="20" y="20" width="1060" height="700" as="geometry" />
        </mxCell>
        <mxCell id="677b7b8949515195-8" value="" style="whiteSpace=wrap;html=1;rounded=0;shadow=0;labelBackgroundColor=none;strokeWidth=1;fillColor=none;fontFamily=Verdana;fontSize=12;align=center;comic=1;" parent="1" vertex="1">
          <mxGeometry x="30" y="110" width="200" height="590" as="geometry" />
        </mxCell>
        <mxCell id="VX7WvCrmsj9iTQPITb5o-9" value="" style="group;fontFamily=Comic Sans MS;" parent="1" vertex="1" connectable="0">
          <mxGeometry x="81.05" y="660" width="80" height="20" as="geometry" />
        </mxCell>
        <mxCell id="VX7WvCrmsj9iTQPITb5o-11" value="&lt;font face=&quot;Comic Sans MS&quot;&gt;Профиль&lt;/font&gt;" style="text;html=1;points=[];align=left;verticalAlign=top;spacingTop=-4;fontSize=14;fontFamily=Verdana" parent="VX7WvCrmsj9iTQPITb5o-9" vertex="1">
          <mxGeometry x="12" width="68.00000000000001" height="20" as="geometry" />
        </mxCell>
        <mxCell id="VX7WvCrmsj9iTQPITb5o-25" value="" style="group;fontColor=#FFFFFF;" parent="1" vertex="1" connectable="0">
          <mxGeometry x="31" y="36" width="1040" height="65" as="geometry" />
        </mxCell>
        <mxCell id="VX7WvCrmsj9iTQPITb5o-15" value="" style="whiteSpace=wrap;html=1;rounded=0;shadow=0;labelBackgroundColor=none;strokeWidth=1;fillColor=#647687;fontFamily=Verdana;fontSize=12;align=center;comic=1;fontColor=#ffffff;strokeColor=#314354;" parent="VX7WvCrmsj9iTQPITb5o-25" vertex="1">
          <mxGeometry width="1040" height="65" as="geometry" />
        </mxCell>
        <mxCell id="VX7WvCrmsj9iTQPITb5o-33" value="&lt;font style=&quot;font-size: 26px; color: rgb(255, 255, 255);&quot;&gt;Асистент Екатерина&lt;/font&gt;" style="text;html=1;align=center;verticalAlign=middle;whiteSpace=wrap;rounded=0;fontFamily=Helvetica;fontSize=12;fontColor=default;" parent="VX7WvCrmsj9iTQPITb5o-25" vertex="1">
          <mxGeometry x="478" y="16" width="300" height="30" as="geometry" />
        </mxCell>
        <mxCell id="VX7WvCrmsj9iTQPITb5o-16" value="Sentralix" style="text;html=1;align=center;verticalAlign=middle;whiteSpace=wrap;rounded=0;fontSize=26;fillColor=#647687;fontColor=#ffffff;strokeColor=none;" parent="VX7WvCrmsj9iTQPITb5o-25" vertex="1">
          <mxGeometry x="60" y="16" width="100" height="29" as="geometry" />
        </mxCell>
        <mxCell id="VX7WvCrmsj9iTQPITb5o-19" value="" style="line;strokeWidth=4;html=1;perimeter=backbonePerimeter;points=[];outlineConnect=0;strokeColor=#FFFFFF;" parent="VX7WvCrmsj9iTQPITb5o-25" vertex="1">
          <mxGeometry x="20" y="18.5" width="30" height="10" as="geometry" />
        </mxCell>
        <mxCell id="VX7WvCrmsj9iTQPITb5o-20" value="" style="line;strokeWidth=4;html=1;perimeter=backbonePerimeter;points=[];outlineConnect=0;strokeColor=#FFFFFF;" parent="VX7WvCrmsj9iTQPITb5o-25" vertex="1">
          <mxGeometry x="20" y="27.5" width="30" height="10" as="geometry" />
        </mxCell>
        <mxCell id="VX7WvCrmsj9iTQPITb5o-21" value="" style="line;strokeWidth=4;html=1;perimeter=backbonePerimeter;points=[];outlineConnect=0;strokeColor=#FFFFFF;" parent="VX7WvCrmsj9iTQPITb5o-25" vertex="1">
          <mxGeometry x="20" y="36.5" width="30" height="10" as="geometry" />
        </mxCell>
        <mxCell id="VX7WvCrmsj9iTQPITb5o-28" value="" style="group;fontFamily=Comic Sans MS;" parent="1" vertex="1" connectable="0">
          <mxGeometry x="50" y="140" width="142.11" height="20" as="geometry" />
        </mxCell>
        <mxCell id="VX7WvCrmsj9iTQPITb5o-27" value="" style="sketch=0;html=1;verticalAlign=top;labelPosition=center;verticalLabelPosition=bottom;align=center;spacingTop=-6;fontSize=11;fontStyle=1;fontColor=#999999;shape=image;aspect=fixed;imageAspect=0;image=data:image/svg+xml,PHN2ZyB4bWxucz0iaHR0cDovL3d3dy53My5vcmcvMjAwMC9zdmciIHhtbG5zOnY9Imh0dHBzOi8vdmVjdGEuaW8vbmFubyIgd2lkdGg9IjIwIiBoZWlnaHQ9IjE3LjUiIGZpbGwtcnVsZT0iZXZlbm9kZCIgdmlld0JveD0iMCAwIDIwIDE3LjUiPiYjeGE7CTxzdHlsZSB0eXBlPSJ0ZXh0L2NzcyI+JiN4YTsJLnN0MHtmaWxsOiM0Mjg1ZjQ7fSYjeGE7CS5zdDF7ZmlsbDojNjY5ZGY2O30mI3hhOwk8L3N0eWxlPiYjeGE7CTxwYXRoIGNsYXNzPSJzdDAiIGQ9Ik0xOC45MSAxMC42M0wyMCA4Ljc1IDE3LjgyIDVoLTMuMDdsLTEuMDYtMS44NkgxMi41VjEuODhoMS45NGwxLjA2IDEuODdoMS41OUwxNC45IDBoLTQuMjd2NWgxLjczbC43MyAxLjI1aC0yLjQ2djIuNWgyLjI2bDEuMDUtMS44N2gyLjgxbC43MiAxLjI1aC0yLjhMMTMuNjIgMTBoLTIuOTl2NC4zOGgzLjRsLS43MiAxLjI1aC0yLjY4djEuODdoNC4yN2wzLjI4LTUuNjJoLTIuMDlsLS43MyAxLjI1SDEyLjV2LTEuMjVoMi4xNGwuNzQtMS4yNXoiLz4mI3hhOwk8cGF0aCBjbGFzcz0ic3QxIiBkPSJNMS4wOSAxMC42M0wwIDguNzUgMi4xOCA1aDMuMDdsMS4wNi0xLjg2SDcuNVYxLjg4SDUuNTZMNC41IDMuNzVIMi45MUw1LjEgMGg0LjI4djVINy42NGwtLjczIDEuMjVoMi40N3YyLjVINy4xMUw2LjA2IDYuODhIMy4yNWwtLjcyIDEuMjVoMi44TDYuMzggMTBoM3Y0LjM4SDUuOTdsLjcyIDEuMjVoMi42OXYxLjg3SDUuMWwtMy4yOC01LjYyaDIuMDlsLjczIDEuMjVINy41di0xLjI1SDUuMzZsLS43NC0xLjI1eiIvPiYjeGE7PC9zdmc+;pointerEvents=0;fontFamily=Helvetica;fillColor=none;gradientColor=none;" parent="VX7WvCrmsj9iTQPITb5o-28" vertex="1">
          <mxGeometry width="22.11" height="20" as="geometry" />
        </mxCell>
        <mxCell id="VX7WvCrmsj9iTQPITb5o-8" value="&lt;font face=&quot;Comic Sans MS&quot;&gt;AI ассистенты&lt;/font&gt;" style="text;html=1;points=[];align=left;verticalAlign=top;spacingTop=-4;fontSize=14;fontFamily=Verdana" parent="VX7WvCrmsj9iTQPITb5o-28" vertex="1">
          <mxGeometry x="32.11" width="110" height="20" as="geometry" />
        </mxCell>
        <mxCell id="VX7WvCrmsj9iTQPITb5o-32" value="" style="shape=image;editableCssRules=.*;verticalLabelPosition=bottom;labelBackgroundColor=none;verticalAlign=top;aspect=fixed;imageAspect=0;image=data:image/svg+xml,PHN2ZyB4bWxucz0iaHR0cDovL3d3dy53My5vcmcvMjAwMC9zdmciIHZpZXdCb3g9Ii0wLjUgLTAuNSAyOCAyOCIgaGVpZ2h0PSIyOCIgd2lkdGg9IjI4Ij4mI3hhOwkgIDxzdHlsZSB0eXBlPSJ0ZXh0L2NzcyI+LnN0MCB7IHN0b3AtY29sb3I6IHJnYig5MSwgMTE1LCAxMzkpOyB9IC5zdDEgeyBzdG9wLWNvbG9yOiByZ2IoMzQsIDUzLCA3Mik7IH0gPC9zdHlsZT4mI3hhOwk8ZGVmcz4mI3hhOwkJPGxpbmVhckdyYWRpZW50IGdyYWRpZW50VW5pdHM9InVzZXJTcGFjZU9uVXNlIiB5Mj0iMjUuMzA5IiB4Mj0iMjMuNDU0IiB5MT0iMy40NzQiIHgxPSIyLjAzOSIgaWQ9IkEiPiYjeGE7CQkJPHN0b3AgY2xhc3M9InN0MCIvPiYjeGE7CQkJPHN0b3AgY2xhc3M9InN0MSIgb2Zmc2V0PSIxIi8+JiN4YTsJCTwvbGluZWFyR3JhZGllbnQ+JiN4YTsJPC9kZWZzPiYjeGE7CTxwYXRoIGZpbGw9InVybCgjQSkiIGQ9Ik0tLjUgMTMuNDcyYzAtMS45My4zNzEtMy43MyAxLjExMy01LjQuNzQyLTEuNzA3IDEuNzQ0LTMuMTkyIDMuMDA2LTQuNDUzUzYuMzY1IDEuMzU2IDguMDczLjYxMyAxMS41OTgtLjUgMTMuNTI4LS41czMuNzMuMzcxIDUuNCAxLjExM2MxLjcwNy43NDIgMy4xOTIgMS43NDQgNC40NTMgMy4wMDZzMi4yNjQgMi43NDYgMy4wMDYgNC40NTNjLjc0MiAxLjY3IDEuMTEzIDMuNDcgMS4xMTMgNS40cy0uMzcxIDMuNzQ4LTEuMTEzIDUuNDU1LTEuNzQ0IDMuMTkyLTMuMDA2IDQuNDUzYTE0LjI4IDE0LjI4IDAgMCAxLTQuNDUzIDMuMDA2Yy0xLjY3Ljc0Mi0zLjQ3IDEuMTEzLTUuNCAxLjExM3MtMy43NDgtLjM3MS01LjQ1NS0xLjExM2ExNC4yOCAxNC4yOCAwIDAgMS00LjQ1My0zLjAwNiAxNC4yOCAxNC4yOCAwIDAgMS0zLjAwNi00LjQ1M0MtLjEyOSAxNy4yMi0uNSAxNS40MDItLjUgMTMuNDcyem0xNi44MTEgNC4yMzFhNi42NSA2LjY1IDAgMCAxIDMuMjg0LjgzNWMxLjAwMi41MiAxLjgxOCAxLjI0MyAyLjQ0OSAyLjE3MWExMC4xNCAxMC4xNCAwIDAgMCAxLjk0OC0zLjI4NGMuNDgyLTEuMjI1LjcyNC0yLjU0Mi43MjQtMy45NTIgMC0xLjU1OS0uMjk3LTMuMDA2LS44OTEtNC4zNDItLjU5NC0xLjM3My0xLjM5Mi0yLjU2MS0yLjM5NC0zLjU2M3MtMi4xOS0xLjgtMy41NjMtMi4zOTRjLTEuMzM2LS41OTQtMi43ODMtLjg5MS00LjM0Mi0uODkxcy0zLjAyNC4yOTctNC4zOTguODkxYy0xLjMzNi41OTQtMi41MjQgMS4zOTItMy41NjMgMi4zOTRBMTEuMzUgMTEuMzUgMCAwIDAgMy4xNzQgOS4xM2MtLjU5NCAxLjMzNi0uODkxIDIuNzgzLS44OTEgNC4zNDIgMCAxLjQxLjIyMyAyLjcyOC42NjggMy45NTIuNDgyIDEuMjI1IDEuMTUgMi4zMTkgMi4wMDQgMy4yODQuNjMxLS45MjggMS40NDctMS42NTEgMi40NDktMi4xNzFhNi42NSA2LjY1IDAgMCAxIDMuMjg0LS44MzV6bTIuNzgzLTcuMDE0YTUuNjggNS42OCAwIDAgMS0uNDQ1IDIuMjI3IDUuODcgNS44NyAwIDAgMS0xLjIyNSAxLjc4MWMtLjQ4Mi40ODItMS4wNTguODcyLTEuNzI2IDEuMTY5cy0xLjM5Mi40NDUtMi4xNzEuNDQ1YTUuNjggNS42OCAwIDAgMS0yLjIyNy0uNDQ1IDYuNDQgNi40NCAwIDAgMS0xLjc4MS0xLjE2OSA2LjQ0IDYuNDQgMCAwIDEtMS4xNjktMS43ODEgNS42OCA1LjY4IDAgMCAxLS40NDUtMi4yMjdjMC0uNzc5LjE0OC0xLjUwMy40NDUtMi4xNzFBNi40NCA2LjQ0IDAgMCAxIDkuNTIgNi43MzdhNS44NyA1Ljg3IDAgMCAxIDEuNzgxLTEuMjI1IDUuNjggNS42OCAwIDAgMSAyLjIyNy0uNDQ1Yy43NzkgMCAxLjUwMy4xNDggMi4xNzEuNDQ1czEuMjQzLjcwNSAxLjcyNiAxLjIyNWE1Ljg3IDUuODcgMCAwIDEgMS4yMjUgMS43ODFjLjI5Ny42NjguNDQ1IDEuMzkyLjQ0NSAyLjE3MXptLTIuNzgzIDBjMC0uNzc5LS4yNzgtMS40MjktLjgzNS0xLjk0OC0uNTU3LS41NTctMS4yMDYtLjgzNS0xLjk0OC0uODM1YTIuNzMgMi43MyAwIDAgMC0yLjAwNC44MzVjLS41NTcuNTItLjgzNSAxLjE2OS0uODM1IDEuOTQ4YTIuNzMgMi43MyAwIDAgMCAuODM1IDIuMDA0Yy41NTcuNTIgMS4yMjUuNzc5IDIuMDA0Ljc3OS43NDIgMCAxLjM5Mi0uMjYgMS45NDgtLjc3OWEyLjczIDIuNzMgMCAwIDAgLjgzNS0yLjAwNHpNNy4wNzEgMjIuNjU3Yy44OTEuNjMxIDEuODc0IDEuMTMyIDIuOTUgMS41MDMgMS4xMTMuMzcxIDIuMjgyLjU1NyAzLjUwNy41NTcgMS4xODggMCAyLjMxOS0uMTg2IDMuMzk2LS41NTcgMS4xMTMtLjM3MSAyLjExNS0uODcyIDMuMDA2LTEuNTAzLS4zNzEtLjY2OC0uODkxLTEuMTg4LTEuNTU5LTEuNTU5LS42MzEtLjQwOC0xLjMxNy0uNjEyLTIuMDYtLjYxMmgtNS42MjJjLS43NDIgMC0xLjQ0Ny4yMDQtMi4xMTUuNjEyLS42MzEuMzcxLTEuMTMyLjg5MS0xLjUwMyAxLjU1OXoiLz4mI3hhOzwvc3ZnPg==;fontSize=14;fontStyle=1;fontColor=#1D2D3E;pointerEvents=0;align=center;fontFamily=Helvetica;fillColor=none;gradientColor=none;" parent="1" vertex="1">
          <mxGeometry x="50" y="656.5" width="27" height="27" as="geometry" />
        </mxCell>
        <mxCell id="VX7WvCrmsj9iTQPITb5o-34" value="" style="whiteSpace=wrap;html=1;rounded=0;shadow=0;labelBackgroundColor=none;strokeWidth=1;fillColor=none;fontFamily=Verdana;fontSize=12;align=center;comic=1;" parent="1" vertex="1">
          <mxGeometry x="240" y="109" width="830" height="591" as="geometry" />
        </mxCell>
        <mxCell id="VX7WvCrmsj9iTQPITb5o-35" value="" style="whiteSpace=wrap;html=1;rounded=0;shadow=0;labelBackgroundColor=none;strokeWidth=1;fillColor=none;fontFamily=Verdana;fontSize=12;align=center;comic=1;" parent="1" vertex="1">
          <mxGeometry x="250" y="120" width="810" height="40" as="geometry" />
        </mxCell>
        <mxCell id="VX7WvCrmsj9iTQPITb5o-38" value="Коннектор" style="text;html=1;align=center;verticalAlign=middle;whiteSpace=wrap;rounded=0;fontFamily=Comic Sans MS;fontSize=12;fontColor=default;" parent="1" vertex="1">
          <mxGeometry x="490" y="125" width="80" height="30" as="geometry" />
        </mxCell>
        <mxCell id="VX7WvCrmsj9iTQPITb5o-39" value="Чат" style="text;html=1;align=center;verticalAlign=middle;whiteSpace=wrap;rounded=0;fontFamily=Comic Sans MS;fontSize=12;fontColor=default;" parent="1" vertex="1">
          <mxGeometry x="640" y="125" width="40" height="30" as="geometry" />
        </mxCell>
        <mxCell id="VX7WvCrmsj9iTQPITb5o-40" value="Сессии" style="text;html=1;align=center;verticalAlign=middle;whiteSpace=wrap;rounded=0;fontFamily=Comic Sans MS;fontSize=12;fontColor=default;" parent="1" vertex="1">
          <mxGeometry x="670" y="125" width="80" height="30" as="geometry" />
        </mxCell>
        <mxCell id="VX7WvCrmsj9iTQPITb5o-41" value="Навыки" style="text;html=1;align=center;verticalAlign=middle;whiteSpace=wrap;rounded=0;fontFamily=Comic Sans MS;fontSize=12;fontColor=default;" parent="1" vertex="1">
          <mxGeometry x="329" y="125" width="80" height="30" as="geometry" />
        </mxCell>
        <mxCell id="VX7WvCrmsj9iTQPITb5o-42" value="База знаний" style="text;html=1;align=center;verticalAlign=middle;whiteSpace=wrap;rounded=0;fontFamily=Comic Sans MS;fontSize=12;fontColor=default;" parent="1" vertex="1">
          <mxGeometry x="402" y="125" width="80" height="30" as="geometry" />
        </mxCell>
        <mxCell id="VX7WvCrmsj9iTQPITb5o-57" value="&lt;font face=&quot;Comic Sans MS&quot;&gt;Настройки асистента&lt;/font&gt;" style="fillColor=none;strokeColor=none;html=1;fontSize=11;fontStyle=0;align=left;fontColor=#172B4C;fontStyle=1;fontSize=18;sketch=1;hachureGap=4;pointerEvents=0;fontFamily=Architects Daughter;fontSource=https%3A%2F%2Ffonts.googleapis.com%2Fcss%3Ffamily%3DArchitects%2BDaughter;verticalAlign=top;" parent="1" vertex="1">
          <mxGeometry x="250" y="160" width="240" height="30" as="geometry" />
        </mxCell>
        <mxCell id="VX7WvCrmsj9iTQPITb5o-58" value="Выберите параметры модели и укажите основной промт" style="fillColor=none;align=left;strokeColor=none;fontColor=#000000;fontSize=12;html=1;whiteSpace=wrap;verticalAlign=top;sketch=1;hachureGap=4;pointerEvents=0;fontFamily=Comic Sans MS;" parent="1" vertex="1">
          <mxGeometry x="250" y="188" width="370" height="25" as="geometry" />
        </mxCell>
        <mxCell id="VX7WvCrmsj9iTQPITb5o-59" value="&lt;font face=&quot;Comic Sans MS&quot;&gt;Имя асистента&lt;/font&gt;&lt;sup&gt;&lt;font color=&quot;#ff0000&quot;&gt;*&lt;/font&gt;&lt;/sup&gt;" style="fillColor=none;strokeColor=none;html=1;fontSize=11;fontStyle=0;align=left;fontColor=#596780;fontStyle=1;fontSize=11;sketch=1;hachureGap=4;pointerEvents=0;fontFamily=Architects Daughter;fontSource=https%3A%2F%2Ffonts.googleapis.com%2Fcss%3Ffamily%3DArchitects%2BDaughter;verticalAlign=top;" parent="1" vertex="1">
          <mxGeometry x="250" y="213" width="240" height="20" as="geometry" />
        </mxCell>
        <mxCell id="VX7WvCrmsj9iTQPITb5o-61" value="Температура" style="fillColor=none;strokeColor=none;html=1;fontSize=11;fontStyle=0;align=left;fontColor=#596780;fontStyle=1;fontSize=11;sketch=1;hachureGap=4;pointerEvents=0;fontFamily=Comic Sans MS;verticalAlign=top;" parent="1" vertex="1">
          <mxGeometry x="252" y="280" width="80" height="20" as="geometry" />
        </mxCell>
        <mxCell id="VX7WvCrmsj9iTQPITb5o-63" value="0.3" style="rounded=1;arcSize=9;fillColor=#F7F8F9;align=left;spacingLeft=5;strokeColor=#DEE1E6;html=1;strokeWidth=2;fontColor=#596780;fontSize=12;sketch=1;hachureGap=4;pointerEvents=0;fontFamily=Comic Sans MS;verticalAlign=top;" parent="1" vertex="1">
          <mxGeometry x="332" y="280" width="50" height="30" as="geometry" />
        </mxCell>
        <mxCell id="VX7WvCrmsj9iTQPITb5o-64" value="Промт" style="fillColor=none;strokeColor=none;html=1;fontSize=11;fontStyle=0;align=left;fontColor=#596780;fontStyle=1;fontSize=11;sketch=1;hachureGap=4;pointerEvents=0;fontFamily=Comic Sans MS;verticalAlign=top;" parent="1" vertex="1">
          <mxGeometry x="250" y="439" width="240" height="20" as="geometry" />
        </mxCell>
        <mxCell id="VX7WvCrmsj9iTQPITb5o-65" value="&lt;font face=&quot;Comic Sans MS&quot;&gt;Ты — универсальная девушка-консультант Екатерина&amp;nbsp;&lt;/font&gt;&lt;span style=&quot;font-family: &amp;quot;Comic Sans MS&amp;quot;; background-color: transparent; color: light-dark(rgb(89, 103, 128), rgb(139, 151, 173));&quot;&gt;компании Талату, ведущего&amp;nbsp;&lt;/span&gt;&lt;div&gt;&lt;span style=&quot;font-family: &amp;quot;Comic Sans MS&amp;quot;; background-color: transparent; color: light-dark(rgb(89, 103, 128), rgb(139, 151, 173));&quot;&gt;производителя красок и&amp;nbsp;&lt;/span&gt;&lt;span style=&quot;font-family: &amp;quot;Comic Sans MS&amp;quot;; background-color: transparent; color: light-dark(rgb(89, 103, 128), rgb(139, 151, 173));&quot;&gt;лакокрасочных материалов в Санкт-Петербурге, Россия.&amp;nbsp;&lt;/span&gt;&lt;div&gt;&lt;font face=&quot;Comic Sans MS&quot;&gt;Всегда отвечай только от первого лица, как Екатерина,&amp;nbsp;&lt;/font&gt;&lt;span style=&quot;font-family: &amp;quot;Comic Sans MS&amp;quot;; background-color: transparent; color: light-dark(rgb(89, 103, 128), rgb(139, 151, 173));&quot;&gt;женского рода. Отвечай коротко&amp;nbsp;&lt;/span&gt;&lt;/div&gt;&lt;div&gt;&lt;span style=&quot;font-family: &amp;quot;Comic Sans MS&amp;quot;; background-color: transparent; color: light-dark(rgb(89, 103, 128), rgb(139, 151, 173));&quot;&gt;и по делу, так как это&amp;nbsp;&lt;/span&gt;&lt;span style=&quot;font-family: &amp;quot;Comic Sans MS&amp;quot;; background-color: transparent; color: light-dark(rgb(89, 103, 128), rgb(139, 151, 173));&quot;&gt;телефонный разговор. Приветствуй и обращайся к&amp;nbsp;&lt;/span&gt;&lt;span style=&quot;font-family: &amp;quot;Comic Sans MS&amp;quot;; background-color: transparent; color: light-dark(rgb(89, 103, 128), rgb(139, 151, 173));&quot;&gt;пользователю&amp;nbsp;&lt;/span&gt;&lt;/div&gt;&lt;div&gt;&lt;span style=&quot;font-family: &amp;quot;Comic Sans MS&amp;quot;; background-color: transparent; color: light-dark(rgb(89, 103, 128), rgb(139, 151, 173));&quot;&gt;по имени или имени отчеству если это&amp;nbsp;&lt;/span&gt;&lt;span style=&quot;font-family: &amp;quot;Comic Sans MS&amp;quot;; background-color: transparent; color: light-dark(rgb(89, 103, 128), rgb(139, 151, 173));&quot;&gt;уместно. Никогда не используй форматы&amp;nbsp;&lt;/span&gt;&lt;/div&gt;&lt;div&gt;&lt;span style=&quot;font-family: &amp;quot;Comic Sans MS&amp;quot;; background-color: transparent; color: light-dark(rgb(89, 103, 128), rgb(139, 151, 173));&quot;&gt;диалога с&amp;nbsp;&lt;/span&gt;&lt;span style=&quot;font-family: &amp;quot;Comic Sans MS&amp;quot;; background-color: transparent; color: light-dark(rgb(89, 103, 128), rgb(139, 151, 173));&quot;&gt;пометками Пользователь: или Ассистент:, не описывай сценки, не вставляй&amp;nbsp;&lt;/span&gt;&lt;/div&gt;&lt;div&gt;&lt;span style=&quot;font-family: &amp;quot;Comic Sans MS&amp;quot;; background-color: transparent; color: light-dark(rgb(89, 103, 128), rgb(139, 151, 173));&quot;&gt;чужие реплики. Каждое сообщение должно быть одной связной фразой для озвучки.&lt;/span&gt;&lt;/div&gt;&lt;/div&gt;" style="rounded=1;arcSize=4;fillColor=#F7F8F9;align=left;spacingLeft=5;strokeColor=#DEE1E6;html=1;strokeWidth=2;fontColor=#596780;fontSize=12;verticalAlign=top;sketch=1;hachureGap=4;pointerEvents=0;fontFamily=Architects Daughter;fontSource=https%3A%2F%2Ffonts.googleapis.com%2Fcss%3Ffamily%3DArchitects%2BDaughter;" parent="1" vertex="1">
          <mxGeometry x="250" y="464" width="530" height="125" as="geometry" />
        </mxCell>
        <mxCell id="VX7WvCrmsj9iTQPITb5o-71" value="Сохранить" style="rounded=1;fillColor=#0057D8;strokeColor=none;fontColor=#ffffff;align=center;verticalAlign=middle;fontStyle=0;fontSize=14;html=1;shadow=0;dashed=0;sketch=0;hachureGap=4;pointerEvents=0;fontFamily=Comic Sans MS;" parent="1" vertex="1">
          <mxGeometry x="870" y="647" width="90" height="33" as="geometry" />
        </mxCell>
        <mxCell id="VX7WvCrmsj9iTQPITb5o-72" value="&lt;font face=&quot;Comic Sans MS&quot;&gt;Отменить&lt;/font&gt;" style="fillColor=none;strokeColor=none;fontColor=#596780;align=center;verticalAlign=middle;fontStyle=0;fontSize=14;html=1;shadow=0;dashed=0;sketch=1;hachureGap=4;pointerEvents=0;fontFamily=Architects Daughter;fontSource=https%3A%2F%2Ffonts.googleapis.com%2Fcss%3Ffamily%3DArchitects%2BDaughter;" parent="1" vertex="1">
          <mxGeometry x="973" y="647" width="70" height="33" as="geometry" />
        </mxCell>
        <mxCell id="VX7WvCrmsj9iTQPITb5o-73" value="" style="fillColor=#36B37E;strokeColor=none;rounded=1;arcSize=50;sketch=0;hachureGap=4;pointerEvents=0;fontFamily=Architects Daughter;fontSource=https%3A%2F%2Ffonts.googleapis.com%2Fcss%3Ffamily%3DArchitects%2BDaughter;fontSize=20;align=center;verticalAlign=top;fontColor=default;" parent="1" vertex="1">
          <mxGeometry x="560" y="244" width="30" height="16" as="geometry" />
        </mxCell>
        <mxCell id="VX7WvCrmsj9iTQPITb5o-74" value="" style="shape=ellipse;strokeColor=none;fillColor=#ffffff;sketch=0;hachureGap=4;pointerEvents=0;fontFamily=Architects Daughter;fontSource=https%3A%2F%2Ffonts.googleapis.com%2Fcss%3Ffamily%3DArchitects%2BDaughter;fontSize=20;align=center;verticalAlign=top;fontColor=default;" parent="VX7WvCrmsj9iTQPITb5o-73" vertex="1">
          <mxGeometry x="1" y="0.5" width="12" height="12" relative="1" as="geometry">
            <mxPoint x="-15" y="-6" as="offset" />
          </mxGeometry>
        </mxCell>
        <mxCell id="VX7WvCrmsj9iTQPITb5o-75" value="" style="html=1;shadow=0;dashed=0;shape=mxgraph.atlassian.check;strokeColor=#ffffff;sketch=1;hachureGap=4;pointerEvents=0;fontFamily=Architects Daughter;fontSource=https%3A%2F%2Ffonts.googleapis.com%2Fcss%3Ffamily%3DArchitects%2BDaughter;fontSize=20;align=center;verticalAlign=top;fontColor=default;fillColor=none;gradientColor=none;" parent="VX7WvCrmsj9iTQPITb5o-73" vertex="1">
          <mxGeometry y="0.5" width="6" height="5" relative="1" as="geometry">
            <mxPoint x="4" y="-3" as="offset" />
          </mxGeometry>
        </mxCell>
        <mxCell id="VX7WvCrmsj9iTQPITb5o-76" value="&lt;font face=&quot;Comic Sans MS&quot;&gt;Включен&lt;/font&gt;" style="fillColor=none;strokeColor=none;html=1;fontSize=11;fontStyle=0;align=left;fontColor=#596780;fontStyle=1;fontSize=11;sketch=1;hachureGap=4;pointerEvents=0;fontFamily=Architects Daughter;fontSource=https%3A%2F%2Ffonts.googleapis.com%2Fcss%3Ffamily%3DArchitects%2BDaughter;verticalAlign=top;" parent="1" vertex="1">
          <mxGeometry x="500" y="240" width="60" height="20" as="geometry" />
        </mxCell>
        <mxCell id="VX7WvCrmsj9iTQPITb5o-77" value="Модель" style="rounded=1;fillColor=none;strokeColor=none;html=1;fontColor=#596780;align=left;fontSize=11;spacingLeft=10;fontSize=11;sketch=1;hachureGap=4;pointerEvents=0;fontFamily=Comic Sans MS;verticalAlign=top;" parent="1" vertex="1">
          <mxGeometry x="240" y="361.5" width="100" height="20" as="geometry" />
        </mxCell>
        <mxCell id="VX7WvCrmsj9iTQPITb5o-78" value="Yandex GPT5 Pro" style="rounded=1;fillColor=#253858;strokeColor=none;html=1;fontColor=#ffffff;align=left;fontSize=12;spacingLeft=10;sketch=0;hachureGap=4;pointerEvents=0;fontFamily=Comic Sans MS;verticalAlign=top;" parent="1" vertex="1">
          <mxGeometry x="249" y="383.5" width="160" height="33" as="geometry" />
        </mxCell>
        <mxCell id="VX7WvCrmsj9iTQPITb5o-79" value="" style="shape=triangle;direction=south;fillColor=#ffffff;strokeColor=none;html=1;sketch=1;hachureGap=4;pointerEvents=0;fontFamily=Architects Daughter;fontSource=https%3A%2F%2Ffonts.googleapis.com%2Fcss%3Ffamily%3DArchitects%2BDaughter;fontSize=20;align=center;verticalAlign=top;fontColor=default;" parent="VX7WvCrmsj9iTQPITb5o-78" vertex="1">
          <mxGeometry x="1" y="0.5" width="12" height="6" relative="1" as="geometry">
            <mxPoint x="-20" y="-3" as="offset" />
          </mxGeometry>
        </mxCell>
        <mxCell id="VX7WvCrmsj9iTQPITb5o-80" value="" style="rounded=1;fillColor=#ffffff;strokeColor=#DFE1E5;shadow=1;html=1;arcSize=4;sketch=1;hachureGap=4;pointerEvents=0;fontFamily=Comic Sans MS;fontSize=20;align=center;verticalAlign=top;fontColor=default;" parent="1" vertex="1">
          <mxGeometry x="270" y="416.5" width="140" height="144" as="geometry" />
        </mxCell>
        <mxCell id="VX7WvCrmsj9iTQPITb5o-81" value="&lt;font face=&quot;Comic Sans MS&quot;&gt;Yandex GPT5 Pro&lt;/font&gt;" style="rounded=0;fillColor=#F4F5F7;strokeColor=none;shadow=0;html=1;align=left;fontSize=12;spacingLeft=10;fontColor=#253858;resizeWidth=1;sketch=1;hachureGap=4;pointerEvents=0;fontFamily=Architects Daughter;fontSource=https%3A%2F%2Ffonts.googleapis.com%2Fcss%3Ffamily%3DArchitects%2BDaughter;verticalAlign=top;" parent="VX7WvCrmsj9iTQPITb5o-80" vertex="1">
          <mxGeometry width="140" height="33" relative="1" as="geometry">
            <mxPoint y="6" as="offset" />
          </mxGeometry>
        </mxCell>
        <mxCell id="VX7WvCrmsj9iTQPITb5o-82" value="&lt;font face=&quot;Comic Sans MS&quot;&gt;Yandex GPT Lite&lt;/font&gt;" style="rounded=0;fillColor=none;strokeColor=none;shadow=0;html=1;align=left;fontSize=12;spacingLeft=10;fontColor=#253858;resizeWidth=1;sketch=1;hachureGap=4;pointerEvents=0;fontFamily=Architects Daughter;fontSource=https%3A%2F%2Ffonts.googleapis.com%2Fcss%3Ffamily%3DArchitects%2BDaughter;verticalAlign=top;" parent="VX7WvCrmsj9iTQPITb5o-80" vertex="1">
          <mxGeometry width="140" height="33" relative="1" as="geometry">
            <mxPoint y="39" as="offset" />
          </mxGeometry>
        </mxCell>
        <mxCell id="VX7WvCrmsj9iTQPITb5o-83" value="&lt;font face=&quot;Comic Sans MS&quot;&gt;Gemini&lt;/font&gt;" style="rounded=0;fillColor=none;strokeColor=none;shadow=0;html=1;align=left;fontSize=12;spacingLeft=10;fontColor=#253858;resizeWidth=1;sketch=1;hachureGap=4;pointerEvents=0;fontFamily=Architects Daughter;fontSource=https%3A%2F%2Ffonts.googleapis.com%2Fcss%3Ffamily%3DArchitects%2BDaughter;verticalAlign=top;" parent="VX7WvCrmsj9iTQPITb5o-80" vertex="1">
          <mxGeometry width="140" height="33" relative="1" as="geometry">
            <mxPoint y="72" as="offset" />
          </mxGeometry>
        </mxCell>
        <mxCell id="VX7WvCrmsj9iTQPITb5o-84" value="&lt;font face=&quot;Comic Sans MS&quot;&gt;LLama&lt;/font&gt;" style="rounded=0;fillColor=none;strokeColor=none;shadow=0;html=1;align=left;fontSize=12;spacingLeft=10;fontColor=#253858;resizeWidth=1;sketch=1;hachureGap=4;pointerEvents=0;fontFamily=Architects Daughter;fontSource=https%3A%2F%2Ffonts.googleapis.com%2Fcss%3Ffamily%3DArchitects%2BDaughter;verticalAlign=top;" parent="VX7WvCrmsj9iTQPITb5o-80" vertex="1">
          <mxGeometry width="140" height="33" relative="1" as="geometry">
            <mxPoint y="105" as="offset" />
          </mxGeometry>
        </mxCell>
        <mxCell id="VX7WvCrmsj9iTQPITb5o-85" value="&lt;span style=&quot;color: rgb(0, 0, 0);&quot;&gt;Екатерина&lt;/span&gt;" style="rounded=1;arcSize=9;fillColor=#F7F8F9;align=left;spacingLeft=5;strokeColor=#DEE1E6;html=1;strokeWidth=2;fontColor=#596780;fontSize=12;sketch=1;hachureGap=4;pointerEvents=0;fontFamily=Comic Sans MS;verticalAlign=top;" parent="1" vertex="1">
          <mxGeometry x="252" y="240" width="230" height="30" as="geometry" />
        </mxCell>
        <mxCell id="VX7WvCrmsj9iTQPITb5o-86" value="&lt;font color=&quot;#000000&quot;&gt;Настройки&lt;/font&gt;" style="rounded=1;arcSize=9;fillColor=#F7F8F9;align=center;spacingLeft=5;strokeColor=#DEE1E6;html=1;strokeWidth=2;fontColor=#596780;fontSize=12;sketch=1;hachureGap=4;pointerEvents=0;fontFamily=Comic Sans MS;verticalAlign=top;" parent="1" vertex="1">
          <mxGeometry x="260" y="126" width="78" height="30" as="geometry" />
        </mxCell>
        <mxCell id="VX7WvCrmsj9iTQPITb5o-87" value="Ограничение токенов" style="fillColor=none;strokeColor=none;html=1;fontSize=11;fontStyle=0;align=left;fontColor=#596780;fontStyle=1;fontSize=11;sketch=1;hachureGap=4;pointerEvents=0;fontFamily=Comic Sans MS;verticalAlign=top;" parent="1" vertex="1">
          <mxGeometry x="250" y="322" width="140" height="20" as="geometry" />
        </mxCell>
        <mxCell id="VX7WvCrmsj9iTQPITb5o-88" value="150" style="rounded=1;arcSize=9;fillColor=#F7F8F9;align=left;spacingLeft=5;strokeColor=#DEE1E6;html=1;strokeWidth=2;fontColor=#596780;fontSize=12;sketch=1;hachureGap=4;pointerEvents=0;fontFamily=Comic Sans MS;verticalAlign=top;" parent="1" vertex="1">
          <mxGeometry x="387" y="320" width="50" height="30" as="geometry" />
        </mxCell>
        <mxCell id="VX7WvCrmsj9iTQPITb5o-89" value="Скрипты" style="text;html=1;align=center;verticalAlign=middle;whiteSpace=wrap;rounded=0;fontFamily=Comic Sans MS;fontSize=12;fontColor=default;" parent="1" vertex="1">
          <mxGeometry x="560" y="125" width="90" height="30" as="geometry" />
        </mxCell>
        <mxCell id="d8IjFQNBFXAjaswiMJ6N-1" value="&lt;font face=&quot;Comic Sans MS&quot;&gt;Описание&lt;/font&gt;" style="fillColor=none;strokeColor=none;html=1;fontSize=11;fontStyle=0;align=left;fontColor=#596780;fontStyle=1;fontSize=11;sketch=1;hachureGap=4;pointerEvents=0;fontFamily=Architects Daughter;fontSource=https%3A%2F%2Ffonts.googleapis.com%2Fcss%3Ffamily%3DArchitects%2BDaughter;verticalAlign=top;" parent="1" vertex="1">
          <mxGeometry x="535" y="322" width="240" height="20" as="geometry" />
        </mxCell>
        <mxCell id="d8IjFQNBFXAjaswiMJ6N-2" value="&lt;span style=&quot;color: rgb(0, 0, 0);&quot;&gt;Консультирует, отвечает на звонки&lt;/span&gt;" style="rounded=1;arcSize=9;fillColor=#F7F8F9;align=left;spacingLeft=5;strokeColor=#DEE1E6;html=1;strokeWidth=2;fontColor=#596780;fontSize=12;sketch=1;hachureGap=4;pointerEvents=0;fontFamily=Comic Sans MS;verticalAlign=top;" parent="1" vertex="1">
          <mxGeometry x="537" y="349" width="230" height="30" as="geometry" />
        </mxCell>
      </root>
    </mxGraphModel>
  </diagram>
</mxfile>
